Coordinates
version=1
nRows=14
nColumns=33
inDegrees=yes

Units are S.I. units (second, meters, Newtons, ...)
Angles are in degrees.

endheader
time	ground_thorax_rot_x	ground_thorax_rot_y	ground_thorax_rot_z	ground_thorax_tx	ground_thorax_ty	ground_thorax_tz	clav_prot_r	clav_elev_r	scapula_abduction_r	scapula_elevation_r	scapula_upward_rot_r	scapula_winging_r	shoulder_elv_r	plane_of_elev_r	axial_rot_r	elbow_flexion_r	pro_sup_r	wrist_flex_r	wrist_dev_r	clav_prot_l	clav_elev_l	scapula_abduction_l	scapula_elevation_l	scapula_upward_rot_l	scapula_winging_l	shoulder_elv_l	plane_of_elev_l	axial_rot_l	elbow_flexion_l	pro_sup_l	wrist_flex_l	wrist_dev_l
      7.00000000	     39.77484411	      9.22327112	      8.77550274	    -81.75106952	    779.41488560	     20.40982868	     17.64339939	     38.87870949	     45.00000000	     39.56780019	    -25.32705091	  -1882.29378507	  -3715.80390827	    145.78826039	    179.99999979	   1085.69718579	     48.53396883	     19.96188645	     13.85630581	      6.29182488	    -45.00000000	    -45.00000000	     45.00000000	    -31.56466710	   1161.70901055	  -1179.48214530	    134.72044555	   -179.99999979	   -351.54025872	     41.65178466	      8.77439581	    -19.85010432
      7.01000000	     39.72920315	      9.13847276	      8.83241458	    -82.24248458	    779.34784420	     20.31138899	     17.46870651	     38.52050291	     45.00000000	     39.43437604	    -25.53809255	  -1882.46793088	  -3715.74700281	    145.46989801	    179.99999979	   1085.73891463	     48.50128054	     20.17145353	     13.73603074	      5.48559678	    -45.00000000	    -44.52791897	     45.00000000	    -31.81137342	   1161.74383044	  -1179.29858326	    134.49483443	   -179.99999979	   -351.68829471	     41.35593060	      9.15564604	    -19.86264921
      7.02000000	     39.77611357	      9.42679639	      9.09749802	    -82.77350344	    779.27988327	     20.20720002	     17.51969083	     38.76355454	     45.00000000	     39.65278401	    -25.74891046	  -1882.19514910	  -3715.78740232	    145.87033321	    179.99999979	   1085.88575276	     48.55440860	     20.01200015	     13.86804198	      5.69310716	    -45.00000000	    -44.56588849	     45.00000000	    -32.22003966	   1161.65698303	  -1179.36710793	    134.74058591	   -179.99999979	   -351.52654710	     40.98190957	      8.85275920	    -19.80480619
      7.03000000	     39.82455232	      9.36438466	      9.06184288	    -83.34583662	    779.21551444	     20.09645017	     17.67527169	     38.62955331	     45.00000000	     39.62594736	    -26.12002601	  -1882.43005352	  -3715.70103109	    145.38533420	    179.99999979	   1085.75451494	     48.55234905	     20.23980039	     13.73222685	      5.58897409	    -45.00000000	    -44.08048866	     45.00000000	    -32.51809560	   1161.65970637	  -1179.15569011	    134.40831131	   -179.99999979	   -351.58742111	     40.73958876	      9.19825234	    -19.82925648
      7.04000000	     39.83224516	      9.61541700	      9.44386998	    -83.96337184	    779.16116034	     19.97920074	     17.62357181	     38.73943115	     45.00000000	     39.77902711	    -26.31282030	  -1882.15020932	  -3715.72429676	    145.85671787	    179.99999979	   1086.03208045	     48.57799190	     20.08249574	     13.85683822	      5.47484951	    -45.00000000	    -44.04179135	     45.00000000	    -32.92606678	   1161.62799368	  -1179.27974278	    134.69227788	   -179.99999979	   -351.51144882	     40.43322159	      8.93933874	    -19.76160597
      7.05000000	     39.87774056	      9.67963190	      9.56156703	    -84.61599998	    779.12182392	     19.85904199	     17.78977597	     38.71704629	     45.00000000	     39.82557109	    -26.74062779	  -1882.29811596	  -3715.66457603	    145.56654110	    179.99999979	   1086.05806933	     48.53890788	     20.26595119	     13.71224091	      5.47459444	    -45.00000000	    -43.74702116	     45.00000000	    -33.40086870	   1161.62415976	  -1179.12547929	    134.55316268	   -179.99999979	   -351.41857144	     40.17825466	      9.14231020	    -19.80393833
      7.06000000	     39.95359309	      9.60855086	      9.60731291	    -85.29938702	    779.10171974	     19.73872259	     17.79465474	     38.76507220	     45.00000000	     40.00648941	    -27.00325126	  -1882.15397618	  -3715.60061866	    145.43022844	    179.99999979	   1086.08556004	     48.56386410	     20.22212622	     13.85153185	      5.41893885	    -45.00000000	    -43.23722511	     45.00000000	    -33.74555241	   1161.58511275	  -1179.10020042	    134.39923065	   -179.99999979	   -351.56319206	     39.97704498	      9.09085043	    -19.73071026
      7.07000000	     39.92915716	      9.89614727	      9.94171086	    -86.01580512	    779.10272275	     19.61964887	     17.92786948	     38.82647714	     45.00000000	     40.04448426	    -27.36572175	  -1882.22822676	  -3715.64610715	    145.55478019	    179.99999979	   1086.19264795	     48.49566222	     20.35451389	     13.66828203	      5.25590172	    -45.00000000	    -43.31265566	     45.00000000	    -34.24324329	   1161.58154105	  -1178.93140982	    134.59516646	   -179.99999979	   -351.27248718	     39.76693860	      9.15807654	    -19.80944212
      7.08000000	     40.07887897	      9.68624712	      9.93734687	    -86.74979089	    779.12907851	     19.50441428	     17.95229262	     38.82537825	     45.00000000	     40.30516703	    -27.74713927	  -1882.02968518	  -3715.48545598	    145.25494456	    179.99999979	   1086.27176786	     48.52215018	     20.29369536	     13.87895972	      5.36527724	    -45.00000000	    -42.57319970	     45.00000000	    -34.55015307	   1161.59190035	  -1178.94511392	    134.23645584	   -179.99999979	   -351.55179772	     39.60949059	      9.11219193	    -19.68675190
      7.09000000	     39.99989499	     10.19287961	     10.38073813	    -87.52169944	    779.18478827	     19.38817905	     18.10834367	     38.94471146	     44.99769452	     40.33285769	    -28.10593408	  -1882.15557231	  -3715.57062914	    145.54348021	    179.99999979	   1086.28595988	     48.43419566	     20.41950511	     13.62044379	      5.07964376	    -45.00000000	    -42.87498887	     45.00000000	    -35.15393950	   1161.53126316	  -1178.72714808	    134.62662948	   -179.99999979	   -351.15753856	     39.41557236	      9.15915614	    -19.80928632
      7.10000000	     40.09954448	     10.17806517	     10.52289225	    -88.32244472	    779.27265243	     19.27082042	     18.15337492	     38.98131754	     44.94534625	     40.52565358	    -28.67467970	  -1881.97476904	  -3715.37011335	    145.37986302	    179.99999979	   1086.57052710	     48.41108577	     20.39962962	     13.73821720	      5.17111369	    -45.00000000	    -42.31186365	     45.00000000	    -35.65734363	   1161.55412391	  -1178.65977696	    134.41856235	   -179.99999979	   -351.18821909	     39.24352186	      9.10387803	    -19.76029743
      7.11000000	     40.19148061	     10.18472720	     10.70411899	    -89.14745487	    779.39362193	     19.15120705	     18.16954474	     38.87178701	     44.90109327	     40.71669697	    -28.88098653	  -1881.96645165	  -3715.37687385	    145.15823329	    179.99999979	   1086.43530271	     48.38764997	     20.52659893	     13.69477693	      5.10536225	    -45.00000000	    -41.86713399	     45.00000000	    -36.08241899	   1161.67995028	  -1178.63691980	    134.26183762	   -179.99999979	   -351.14617486	     39.12636047	      9.16889733	    -19.77497228
      7.12000000	     40.17517321	     10.40947502	     10.88953103	    -90.00575616	    779.54931560	     19.02631265	     18.17493538	     39.12084609	     44.73450334	     40.82692034	    -29.35835821	  -1881.77516452	  -3715.16331513	    145.31847696	    179.99999979	   1086.86267645	     48.35649326	     20.48027203	     13.70903277	      4.99657987	    -45.00000000	    -41.96013120	     45.00000000	    -36.56420536	   1161.60600843	  -1178.38780270	    134.45859060	   -179.99999979	   -350.90847837	     38.98126400	      9.05974193	    -19.80967168
      7.13000000	     40.20034323	     10.52391773	     11.11185768	    -90.89326716	    779.73972235	     18.89528520	     18.20025766	     38.75269506	     44.64596715	     40.92188552	    -29.59067489	  -1881.87231448	  -3715.16062688	    144.98943519	    179.99999979	   1086.54602087	     48.35871160	     20.64287031	     13.64659381	      5.12256482	    -45.00000000	    -41.37666031	     45.00000000	    -36.92737117	   1161.82402451	  -1178.43043573	    134.11372945	   -179.99999979	   -351.11874822	     38.91403426	      9.18308779	    -19.76561732
